<svg xmlns="http://www.w3.org/2000/svg" aria-hidden="true"
  style="position:absolute;width:0;height:0;overflow:hidden">
  <defs>
    <symbol id="icon-menu" viewBox="0 0 24 24">
      <rect width="18" height="2" x="3" y="11" fill="currentColor" rx=".95" ry=".95" />
      <rect width="18" height="2" x="3" y="16" fill="currentColor" rx=".95" ry=".95" />
      <rect width="18" height="2" x="3" y="6" fill="currentColor" rx=".95" ry=".95" />
    </symbol>
    <symbol id="icon-check" viewBox="0 0 40 32">
      <path
        d="M33.782 1.02C34.473.358 35.393-.007 36.347 0s1.869.387 2.55 1.059c.681.672 1.076 1.584 1.101 2.543s-.321 1.891-.966 2.598L19.454 30.817a3.6743 3.6743 0 0 1-2.629 1.182c-.495.009-.986-.082-1.445-.268s-.876-.463-1.226-.815L1.17 17.862c-.362-.339-.652-.747-.853-1.201s-.309-.944-.318-1.441.082-.99.267-1.451c.185-.461.461-.879.81-1.231s.766-.628 1.224-.814.949-.277 1.443-.269a3.6754 3.6754 0 0 1 2.628 1.177l10.275 10.325 17.042-21.83c.031-.038.063-.074.098-.109h-.005z" />
    </symbol>
    <symbol id="icon-close" viewBox="0 0 32 32">
      <path
        d="M32 3.223 28.777 0 16 12.777 3.223 0 0 3.223 12.777 16 0 28.777 3.223 32 16 19.223 28.777 32 32 28.777 19.223 16 32 3.223z" />
    </symbol>
    <symbol id="icon-facebook-messenger" viewBox="0 0 24 24">
      <path fill-rule="evenodd"
        d="M2.5 12a9.5 9.5 0 1 1 6.516 9.022l-2.858.952A.5.5 0 0 1 5.5 21.5v-2.572A9.48 9.48 0 0 1 2.5 12m12.277 2.038 2.65-3.92c.262-.386-.235-.805-.615-.529l-2.858 2.015a.57.57 0 0 1-.652 0l-2.116-1.477c-.633-.437-1.538-.277-1.963.335l-2.65 3.92c-.262.386.235.806.615.529l2.858-2.015a.57.57 0 0 1 .652 0l2.116 1.452c.633.462 1.538.302 1.963-.31"
        clip-rule="evenodd" />
    </symbol>
    <symbol id="icon-youtube" viewBox="0 0 24 24">
      <path
        d="M23 9.71a8.5 8.5 0 0 0-.91-4.13 2.92 2.92 0 0 0-1.72-1A78 78 0 0 0 12 4.27a79 79 0 0 0-8.34.3 2.87 2.87 0 0 0-1.46.74c-.9.83-1 2.25-1.1 3.45a48 48 0 0 0 0 6.48 9.6 9.6 0 0 0 .3 2 3.14 3.14 0 0 0 .71 1.36 2.86 2.86 0 0 0 1.49.78 45 45 0 0 0 6.5.33c3.5.05 6.57 0 10.2-.28a2.9 2.9 0 0 0 1.53-.78 2.5 2.5 0 0 0 .61-1 10.6 10.6 0 0 0 .52-3.4c.04-.56.04-3.94.04-4.54M9.74 14.85V8.66l5.92 3.11c-1.66.92-3.85 1.96-5.92 3.08" />
    </symbol>
    <symbol id="icon-clock" viewBox="0 0 32 32">
      <path fill="#2e2f42"
        d="M31.297 15.301C31.295 6.849 24.442-.002 15.989 0S.686 6.855.688 15.308c.001 6.658 4.307 12.551 10.649 14.576.061.019.124.029.187.029.121 0 .239-.032.342-.094.135-.08.236-.207.283-.356l3.865-12.25c1.057-.005 1.909-.866 1.903-1.923s-.866-1.909-1.923-1.903c-.284.001-.565.067-.82.191l-5.106-5.107a.6372.6372 0 0 0-.902.016.637.637 0 0 0 0 .886l5.103 5.109c-.392.799-.168 1.764.536 2.309l-3.683 11.673C3.844 25.783.118 17.71 2.799 10.432S13.553-.572 20.831 2.109c7.278 2.681 11.004 10.754 8.323 18.032a14.0422 14.0422 0 0 1-7.462 7.973l-.398-1.874a.6373.6373 0 0 0-.756-.492.643.643 0 0 0-.293.148l-3.837 3.426a.6366.6366 0 0 0-.052.9c.076.085.174.149.283.184l4.899 1.564c.335.108.694-.077.802-.412.034-.106.04-.219.017-.328l-.391-1.839c5.664-2.388 9.342-7.942 9.329-14.089zm-15.305-.637c.352 0 .638.286.638.638s-.286.638-.638.638c-.352 0-.638-.285-.638-.638s.285-.638.638-.638zm2.101 14.864 2.184-1.948.603 2.84-2.787-.892z"
        style="fill:var(--color1, #2e2f42)" />
      <path fill="#4d5ae5"
        d="M15.354 3.185V4.46c0 .352.285.638.638.638s.638-.285.638-.638V3.185c0-.352-.286-.638-.638-.638s-.638.286-.638.638zM3.876 14.664c-.352 0-.638.286-.638.638s.285.638.638.638h1.275c.352 0 .638-.285.638-.638s-.285-.638-.638-.638H3.876zm24.232 1.275c.352 0 .638-.285.638-.638s-.285-.638-.638-.638h-1.275c-.352 0-.638.286-.638.638s.286.638.638.638h1.275z"
        style="fill:var(--color2, #4d5ae5)" />
    </symbol>
    <symbol id="icon-email" viewBox="0 0 32 32">
      <path
        d="M24 8H8c-1.1 0-1.99.9-1.99 2L6 22c0 1.1.9 2 2 2h16c1.1 0 2-.9 2-2V10c0-1.1-.9-2-2-2zm-.4 4.25-7.07 4.42c-.32.2-.74.2-1.06 0L8.4 12.25c-.25-.16-.4-.43-.4-.72 0-.67.73-1.07 1.3-.72L16 15l6.7-4.19c.57-.35 1.3.05 1.3.72 0 .29-.15.56-.4.72z" />
    </symbol>
    <symbol id="icon-facebook" viewBox="0 0 32 32">
      <path
        d="M21.329 5.313h2.921V.225C23.746.156 22.013 0 19.994 0c-4.212 0-7.097 2.649-7.097 7.519V12H8.249v5.688h4.648V32h5.699V17.689h4.46l.708-5.688h-5.169V8.082c.001-1.644.444-2.769 2.735-2.769z" />
    </symbol>
    <symbol id="icon-instagram" viewBox="0 0 32 32">
      <path
        d="M31.969 9.408c-.075-1.7-.35-2.869-.744-3.882-.406-1.075-1.031-2.038-1.85-2.838A7.8671 7.8671 0 0 0 26.543.844C25.524.45 24.361.175 22.661.1 20.948.019 20.404 0 16.06 0s-4.888.019-6.595.094c-1.7.075-2.869.35-3.882.744-1.075.406-2.038 1.031-2.838 1.85-.813.8-1.444 1.769-1.844 2.832C.507 6.539.232 7.702.157 9.402c-.081 1.713-.1 2.257-.1 6.601s.019 4.888.094 6.595c.075 1.7.35 2.869.744 3.882.406 1.075 1.038 2.038 1.85 2.838.8.813 1.769 1.444 2.832 1.844 1.019.394 2.182.669 3.882.744 1.706.075 2.25.094 6.595.094s4.888-.019 6.595-.094c1.7-.075 2.869-.35 3.882-.744a8.1843 8.1843 0 0 0 4.682-4.682c.394-1.019.669-2.182.744-3.882.075-1.707.094-2.25.094-6.595s-.006-4.888-.081-6.595zm-2.882 13.065c-.069 1.563-.331 2.407-.55 2.969-.538 1.394-1.644 2.501-3.038 3.038-.563.219-1.413.481-2.969.55-1.688.075-2.194.094-6.464.094s-4.782-.019-6.464-.094c-1.563-.069-2.407-.331-2.969-.55-.694-.256-1.325-.663-1.838-1.194-.531-.519-.938-1.144-1.194-1.838-.219-.563-.481-1.413-.55-2.969-.075-1.688-.094-2.194-.094-6.464s.019-4.782.094-6.464c.069-1.563.331-2.407.55-2.969.256-.694.663-1.325 1.2-1.838.519-.531 1.144-.938 1.838-1.194.563-.219 1.413-.481 2.969-.55 1.688-.075 2.194-.094 6.464-.094 4.276 0 4.782.019 6.464.094 1.563.069 2.407.331 2.969.55.694.256 1.325.662 1.838 1.194.531.519.938 1.144 1.194 1.838.219.563.481 1.413.55 2.969.075 1.688.094 2.194.094 6.464s-.019 4.77-.094 6.458z" />
      <path
        d="M16.059 7.783c-4.538 0-8.22 3.682-8.22 8.22s3.682 8.22 8.22 8.22c4.539 0 8.22-3.682 8.22-8.22s-3.682-8.22-8.22-8.22zm0 13.552c-2.944 0-5.332-2.388-5.332-5.332s2.388-5.332 5.332-5.332 5.332 2.388 5.332 5.332-2.388 5.332-5.332 5.332zM26.524 7.458c0 1.06-.859 1.919-1.919 1.919s-1.919-.859-1.919-1.919.859-1.919 1.919-1.919 1.919.859 1.919 1.919z" />
    </symbol>
    <symbol id="icon-person" viewBox="0 0 32 32">
      <path
        d="M16 16c2.947 0 5.333-2.387 5.333-5.333S18.946 5.334 16 5.334c-2.947 0-5.333 2.387-5.333 5.333S13.054 16 16 16zm0 2.667c-3.56 0-10.667 1.787-10.667 5.333v1.333c0 .733.6 1.333 1.333 1.333h18.667c.733 0 1.333-.6 1.333-1.333V24c0-3.547-7.107-5.333-10.667-5.333z" />
    </symbol>
    <symbol id="icon-phone" viewBox="0 0 32 32">
      <path
        d="m23.635 18.487-2.451-.28c-.589-.067-1.167.135-1.582.55l-1.775 1.775c-2.731-1.389-4.969-3.618-6.359-6.359l1.785-1.785c.415-.415.618-.994.55-1.582l-.28-2.432c-.116-.975-.936-1.708-1.92-1.708H9.934c-1.09 0-1.997.907-1.93 1.997.511 8.24 7.102 14.821 15.332 15.332 1.09.068 1.997-.839 1.997-1.93v-1.669c.01-.975-.724-1.795-1.698-1.911z" />
    </symbol>
    <symbol id="icon-telegram" viewBox="0 0 32 32">
      <path
        d="M32 2.667l-32 15 10.227 3.156 15.773-12.323-11.998 13.488 0.010 0.003-0.012-0.003v7.345l5.735-5.576 7.265 2.242 5-23.333z"></path>
    </symbol>
    <symbol id="icon-threads" viewBox="0 0 256 256">
      <path
        d="M186.42 123.65a64 64 0 0 0-11.13-6.72c-4-29.89-24-39.31-33.1-42.07c-19.78-6-42.51 1.19-52.85 16.7a8 8 0 0 0 13.32 8.88c6.37-9.56 22-14.16 34.89-10.27c9.95 3 16.82 10.3 20.15 21a81 81 0 0 0-15.29-1.43c-13.92 0-26.95 3.59-36.67 10.1C94.3 127.57 88 139 88 152c0 20.58 15.86 35.52 37.71 35.52a48 48 0 0 0 34.35-14.81c6.44-6.7 14-18.36 15.61-37.1c.38.26.74.53 1.1.8C186.88 144.05 192 154.68 192 168c0 19.36-20.34 48-64 48c-26.73 0-45.48-8.65-57.34-26.44C60.93 175 56 154.26 56 128s4.93-47 14.66-61.56C82.52 48.65 101.27 40 128 40c32.93 0 54 13.25 64.53 40.52a8 8 0 1 0 14.93-5.75C194.68 41.56 167.2 24 128 24c-32 0-55.81 11.29-70.66 33.56C45.83 74.83 40 98.52 40 128s5.83 53.17 17.34 70.44C72.19 220.71 96 232 128 232c30.07 0 48.9-11.48 59.4-21.1C200.3 199.08 208 183 208 168c0-18.34-7.46-33.68-21.58-44.35m-37.89 38a31.94 31.94 0 0 1-22.82 9.9c-10.81 0-21.71-6-21.71-19.52c0-12.63 12-26.21 38.41-26.21a64 64 0 0 1 17.59 2.42c0 14.08-4 25.62-11.47 33.38Z" />
    </symbol>
    <symbol id="icon-certification_re_ifll" viewBox="0 0 28 32">
      <path fill="#f2f2f2" d="M27.554 28.405h-7.396v-.096c4.032 0 7.3-3.268 7.3-7.3v-5.161h.096z"
        style="fill:var(--color1, #f2f2f2)" />
      <path fill="#2f2e41"
        d="M7.375 9.751c-.158.063-.358.128-.563.182l-.038.008c-.269.066-.421.096-.681-.005-.009-.004-.018-.007-.026-.011-.985-.427-1.665-1.384-1.681-2.502v-.002c-.001-.018-.001-.038-.001-.057v-.008c0-.093.005-.185.014-.276l-.001.011c.013-.138.034-.263.063-.384l-.004.019h-.003c-.21-.215-.291-.51-.265-.806.039-.419.267-.777.597-.993l.005-.003c.25-.159.547-.269.865-.308l.01-.001c.075-.009.163-.014.252-.015h.79c.141-.035.31-.063.483-.077l.013-.001h.001c1.59-.132 2.844.922 2.727 2.205-.001.001-.002.003-.003.004-.034.055-.064.107-.09.157-.026.047-.047.091-.066.134-.145.328.544 5.414.297 5.491-.141.044-.708-3.741-.606-3.021.128.903-1.356-.012-2.088.258z"
        style="fill:var(--color2, #2f2e41)" />
      <path fill="#ffb6b6" d="m9.77 18.944 2.204 4.695-8.478-.859 1.77-4.507 4.504.671z"
        style="fill:var(--color3, #ffb6b6)" />
      <path fill="#2f2e41"
        d="M14.194 28.358c-1.164.401-2.505.632-3.9.632-.239 0-.476-.007-.712-.02l.033.001-.675-1.094s-.028.407-.07 1.03c-.816-.096-1.553-.258-2.262-.485l.084.023c-1.346-.421-2.608-1.073-3.887-1.674-.259-1.544-.356-3.925 1.076-5.311l7.708 1.413s1.237.925.906 1.256c-.331.331-.382.28-.165.497s.687.508.692.698c.002.074.529 1.42 1.171 3.034z"
        style="fill:var(--color2, #2f2e41)" />
      <path fill="#6c63ff"
        d="m8.424 9.872-1.862.13-1.204 1.163-.422.075c-.741.136-1.296.777-1.296 1.547 0 .033.001.065.003.097v-.004c.087 1.469.281 3.664.687 4.376.629 1.104 1.149.758.629 1.104s-.869.074-.629.622-.324 1.25-.324 1.25l-.224.224.238.097 7.575.986s-.655-2.945-.245-3.668 1.403-2.91.516-3.766l-.867-3.05-1.491-.44z"
        style="fill:var(--color4, #6c63ff)" />
      <path fill="#ffb6b6"
        d="M19.697 21.958c-.464-.015-.834-.395-.834-.861 0-.058.006-.115.017-.17l-.001.006-3.553-2.406.424-1.146 4.199 2.889c.368.103.633.435.633.829 0 .475-.385.86-.86.86h-.027.001z"
        style="fill:var(--color3, #ffb6b6)" />
      <path fill="#6c63ff"
        d="m9.661 10.912-.516.204 2.754 5.379 5.702 3.886.822-1.389-4.34-3.749-1.738-3.332c-.365-.689-1.077-1.15-1.896-1.15-.284 0-.554.055-.802.155l.014-.005z"
        style="fill:var(--color4, #6c63ff)" />
      <path fill="#ffb6b6"
        d="M9.266 7.528c0 1.033-.837 1.87-1.87 1.87s-1.87-.837-1.87-1.87c0-1.033.837-1.87 1.87-1.87s1.87.837 1.87 1.87z"
        style="fill:var(--color3, #ffb6b6)" />
      <path fill="#2f2e41"
        d="M9.022 6.738c-.031.016-.062.032-.093.047-.032.016-.065.031-.098.046-.626.284-1.136.315-1.445-.093-.009-.227-.061-.44-.147-.634l.004.011c.002.021.002.045.002.069 0 .206-.063.398-.17.558l.002-.004h-.623c-.641.426-.971.817-.525 2.214.029.092.228 3.354.285 3.605-.971-.372-1.809-4.327-1.83-5.369-.001-.017-.001-.035-.001-.052v-.007c0-.086.005-.17.014-.253l-.001.01c.013-.127.034-.241.062-.352l-.004.016h-.003c-.167-.16-.271-.385-.271-.634 0-.038.002-.075.007-.111v.004c.163-.213.361-.39.585-.527l.009-.005c.183-.091.399-.175.624-.238l.027-.006c.006-.001.01-.003.016-.004.068-.019.139-.035.209-.05.121-.027.27-.05.422-.065l.016-.001c.011 0 .021-.001.031-.001.062 0 .119.017.169.047l-.001-.001h.001c.096.058.16.162.161.28h.694c.026 0 .051.001.077.002.966.039 1.743.452 1.793 1.401.002.033.003.065.003.098z"
        style="fill:var(--color2, #2f2e41)" />
      <path fill="#2f2e41"
        d="M6.152 5.581c0 .68-.552 1.232-1.232 1.232s-1.232-.552-1.232-1.232c0-.68.552-1.232 1.232-1.232s1.232.552 1.232 1.232z"
        style="fill:var(--color2, #2f2e41)" />
      <path fill="#2f2e41"
        d="M6.611 5.011c-.14.666-.83 1.064-1.491.901-.542-.137-.937-.62-.937-1.196 0-.105.013-.206.038-.303l-.002.008c.163-.661.965-.47 1.491-.901.745-.61 1.09.593.901 1.491z"
        style="fill:var(--color2, #2f2e41)" />
      <path fill="#f2f2f2"
        d="M3.874 23.546c1.05-4.282 3.131-7.962 6.576-10.846.173-.281.479-.466.828-.466.185 0 .359.052.506.142l-.004-.002 8.191 4.966c.281.173.466.479.466.828 0 .185-.052.359-.142.506l.002-.004c-1.315 4.394-3.285 8.206-6.576 10.846-.173.281-.479.466-.828.466-.185 0-.359-.052-.506-.142l.004.002L4.2 24.876c-.281-.173-.466-.479-.466-.828 0-.185.052-.359.142-.506l-.002.004z"
        style="fill:var(--color1, #f2f2f2)" />
      <path
        d="M5.33 24.989c-.281-.173-.466-.479-.466-.828 0-.185.052-.359.142-.506l-.002.004c1.05-4.282 3.13-7.962 6.576-10.846.089-.144.211-.259.356-.339l.005-.002-.161-.098c-.143-.088-.316-.14-.502-.14-.349 0-.655.185-.826.462l-.002.004c-3.446 2.884-5.526 6.564-6.576 10.846-.088.143-.14.316-.14.502 0 .349.185.655.462.826l.004.002 8.191 4.966c.142.087.314.138.498.138.173 0 .335-.046.476-.125l-.005.003z"
        opacity=".2" style="fill:var(--color5, #000)" />
      <path fill="#fff"
        d="m14.936 22.597-5.498-3.313c-.112-.069-.186-.191-.186-.33 0-.213.172-.385.385-.385.073 0 .142.02.2.056l-.002-.001 5.498 3.313c.112.069.185.19.185.329 0 .213-.172.385-.385.385-.073 0-.141-.02-.199-.056l.002.001zm-3.199-4.393-1.21-.729c-.113-.068-.187-.191-.187-.331 0-.213.172-.385.385-.385.073 0 .141.02.199.056l-.002-.001.002.001 1.21.729c.112.069.185.19.185.329 0 .213-.172.385-.385.385-.073 0-.141-.02-.2-.056l.002.001zm2.325 5.843-5.498-3.313c-.113-.069-.186-.191-.186-.33 0-.213.172-.385.385-.385.073 0 .142.02.2.056l-.002-.001h.001l5.498 3.313c.112.069.185.19.185.329 0 .213-.172.385-.385.385-.073 0-.141-.02-.199-.056l.002.001z"
        style="fill:var(--color6, #fff)" />
      <path fill="#3f3d56"
        d="M17.24 14.744c0 .887-.719 1.606-1.606 1.606s-1.606-.719-1.606-1.606c0-.887.719-1.606 1.606-1.606s1.606.719 1.606 1.606z"
        style="fill:var(--color7, #3f3d56)" />
      <path fill="#fff"
        d="M16.298 28.52c0 1.896-1.537 3.432-3.432 3.432s-3.432-1.537-3.432-3.432c0-1.896 1.537-3.432 3.432-3.432s3.432 1.537 3.432 3.432z"
        style="fill:var(--color6, #fff)" />
      <path fill="#3f3d56"
        d="M12.866 32c-1.922 0-3.48-1.558-3.48-3.48s1.558-3.48 3.48-3.48 3.48 1.558 3.48 3.48c-.002 1.921-1.559 3.478-3.48 3.48zm0-6.865c-1.869 0-3.385 1.515-3.385 3.384s1.515 3.384 3.384 3.384 3.384-1.515 3.384-3.384c-.002-1.868-1.516-3.382-3.384-3.384z"
        style="fill:var(--color7, #3f3d56)" />
      <path fill="#6c63ff"
        d="M12.397 30.306c-.124 0-.235-.06-.305-.152l-.001-.001-.936-1.249c-.048-.063-.077-.143-.077-.229 0-.211.171-.382.382-.382.125 0 .235.06.305.152l.001.001.613.817 1.573-2.36c.069-.103.186-.17.318-.17.211 0 .382.171.382.382 0 .079-.024.152-.065.213l.001-.001-1.873 2.809c-.068.1-.179.166-.307.17h-.012z"
        style="fill:var(--color4, #6c63ff)" />
      <path fill="#fff"
        d="M24.183 10.933c.008.095-.096.181-.232.193s-.254-.056-.262-.151c-.008-.095.096-.181.232-.193s.254.056.262.151z"
        style="fill:var(--color6, #fff)" />
      <path fill="#3f3d56"
        d="M25.717 10.412c.008.095-.096.181-.232.193s-.254-.056-.262-.151c-.008-.095.096-.181.232-.193s.254.056.262.151z"
        style="fill:var(--color7, #3f3d56)" />
      <path fill="#ff6584"
        d="M23.455 9.762c.008.095-.096.181-.232.193s-.254-.056-.262-.151c-.008-.095.096-.181.232-.193s.254.056.262.151z"
        style="fill:var(--color8, #ff6584)" />
      <path fill="#e6e6e6"
        d="M22.651 9.401c.019.084-.013.164-.072.177s-.122-.044-.141-.129c-.019-.084.013-.164.072-.177s.122.044.141.129z"
        style="fill:var(--color9, #e6e6e6)" />
      <path fill="#3f3d56"
        d="M22.193 8.485c.019.084-.013.164-.072.177s-.122-.044-.141-.129c-.019-.084.013-.164.072-.177s.122.044.141.129z"
        style="fill:var(--color7, #3f3d56)" />
      <path fill="#e6e6e6"
        d="M24.392 9.771c.019.084-.013.164-.072.177s-.122-.044-.141-.129c-.019-.084.013-.164.072-.177s.122.044.141.129z"
        style="fill:var(--color9, #e6e6e6)" />
      <path fill="#ff6584"
        d="M23.721 10.328c.019.084-.013.164-.072.177s-.122-.044-.141-.129c-.019-.084.013-.164.072-.177s.122.044.141.129z"
        style="fill:var(--color8, #ff6584)" />
      <path fill="#3f3d56"
        d="M24.942 10.781c.019.084-.013.164-.072.177s-.122-.044-.141-.129c-.019-.084.013-.164.072-.177s.122.044.141.129z"
        style="fill:var(--color7, #3f3d56)" />
      <path fill="#fff"
        d="M17.417 3.803c.133.034.221.136.198.228s-.15.14-.283.106c-.133-.034-.221-.136-.198-.228s.15-.14.283-.106z"
        style="fill:var(--color6, #fff)" />
      <path fill="#3f3d56"
        d="M15.796 3.793c.133.034.221.136.198.228s-.15.14-.283.106c-.133-.034-.221-.136-.198-.228s.15-.14.283-.106z"
        style="fill:var(--color7, #3f3d56)" />
      <path fill="#ff6584"
        d="M17.721 5.148c.133.034.221.136.198.228s-.15.14-.283.106c-.133-.034-.221-.136-.198-.228s.15-.14.283-.106z"
        style="fill:var(--color8, #ff6584)" />
      <path fill="#e6e6e6"
        d="M18.206 5.715c.06.007.101.082.091.168s-.066.15-.126.144c-.06-.007-.101-.082-.091-.168s.066-.15.126-.144z"
        style="fill:var(--color9, #e6e6e6)" />
      <path fill="#3f3d56"
        d="M18.339 6.73c.06.007.101.082.091.168s-.066.15-.126.144c-.06-.007-.101-.082-.091-.168s.066-.15.126-.144z"
        style="fill:var(--color7, #3f3d56)" />
      <path fill="#e6e6e6"
        d="M16.682 4.795c.06.007.101.082.091.168s-.066.15-.126.144c-.06-.007-.101-.082-.091-.168s.066-.15.126-.144z"
        style="fill:var(--color9, #e6e6e6)" />
      <path fill="#ff6584"
        d="M17.498 4.489c.06.007.101.082.091.168s-.066.15-.126.144c-.06-.007-.101-.082-.091-.168s.066-.15.126-.144z"
        style="fill:var(--color8, #ff6584)" />
      <path fill="#3f3d56"
        d="M16.493 3.661c.06.007.101.082.091.168s-.066.15-.126.144c-.06-.007-.101-.082-.091-.168s.066-.15.126-.144z"
        style="fill:var(--color7, #3f3d56)" />
      <path fill="#f2f2f2" d="M.096 12.557H0V0h7.396v.096c-4.032 0-7.3 3.268-7.3 7.3z"
        style="fill:var(--color1, #f2f2f2)" />
      <path fill="#ffb6b6"
        d="M4.385 23.591c-.335-.14-.567-.466-.567-.845 0-.176.05-.341.137-.481l-.002.004-2.639-3.709.846-.982 3.102 4.428c.231.168.379.437.379.74 0 .504-.408.912-.912.912-.124 0-.243-.025-.35-.07l.006.002z"
        style="fill:var(--color3, #ffb6b6)" />
      <path fill="#6c63ff"
        d="M4.445 11.838c-.095-.057-.208-.09-.33-.09-.202 0-.382.092-.501.235l-.001.001L.048 16.97l3.304 4.692 1.293-1.389-2.011-3.16 2.673-2.545c.122-.261.193-.566.193-.888 0-.781-.419-1.465-1.044-1.838l-.01-.005z"
        style="fill:var(--color4, #6c63ff)" />
    </symbol>
    <symbol id="icon-teacher" viewBox="0 0 32 32">
      <path fill="#f2f2f2"
        d="M32 16v.018c0 1.835-.309 3.598-.879 5.239l.034-.112q-.048.142-.099.283c-.639 1.741-1.5 3.247-2.57 4.578l.024-.031q-.489.613-1.035 1.175t-1.148 1.071c-2.146 1.829-4.817 3.105-7.757 3.576l-.091.012q-.554.086-1.119.134-.672.057-1.361.057h-.021c-4.481 0-8.53-1.848-11.427-4.823l-.003-.003q-.157-.16-.309-.326-.379-.411-.729-.848-.197-.246-.384-.499c-.726-.971-1.365-2.077-1.865-3.256l-.039-.104c-.175-.4-.363-.915-.525-1.443l-.029-.111c-.011-.037-.022-.075-.033-.112q-.035-.121-.069-.243C.207 18.967 0 17.514 0 16.013V16v.001c0-8.836 7.164-16 16-16s16 7.164 16 16z"
        style="fill:var(--color1, #f2f2f2)" />
      <path fill="#a0616a"
        d="M6.786 9.564c-.009.051-.014.11-.014.169 0 .576.467 1.043 1.043 1.043h.015-.001l2.554 7.432 1.63-1.12-3.146-7.443c-.044-.542-.495-.965-1.045-.965-.521 0-.954.38-1.035.879l-.001.006z"
        style="fill:var(--color10, #a0616a)" />
      <path fill="#6c63ff"
        d="M20.116 12.078c-1.134 1.29-3.931 3.564-6.235 5.13-.498.338-.973.643-1.404.898-.291.172-.561.321-.804.443-.172.088-.376.139-.591.139-.552 0-1.025-.337-1.224-.817l-.003-.009-1.595-3.859 2.222-1.473 1.276 3.04 5.99-4.808.329-.098 1.308 1.277.51.089c.076.013.15.029.221.047z"
        style="fill:var(--color4, #6c63ff)" />
      <path fill="#fff"
        d="M30.292 22.682c.079.1.161.2.243.301-.324.662-.64 1.213-.987 1.742l.037-.06q-.039-.028-.078-.055c-.005-.003-.008-.005-.012-.008-.097-.069-.195-.137-.292-.206-.076-.249-.124-.536-.133-.833v-.005c.112-.026.194-.126.194-.244 0-.097-.055-.18-.135-.222l-.001-.001c-.013-.022-.022-.038-.035-.061 0-.006.001-.012.002-.017.074-.591.828-.798 1.196-.329zm.85-2.026q.085.234.155.474-.048.142-.099.283-.019-.075-.04-.149c-.092-.331-.187-.602-.296-.865l.019.051q-.132-.327-.293-.641c-.6-1.156-1.43-2.115-2.437-2.848l-.023-.016c-.443-.105-.822-.335-1.108-.651l-.002-.002c-.103-.113-.191-.241-.259-.381l-.004-.01c.044-.006.087-.015.13-.024.013-.003.027-.006.04-.009l.005-.001c.111-.026.192-.125.192-.242 0-.083-.041-.157-.104-.202l-.001-.001c-.024-.018-.049-.035-.073-.052-.037-.027-.074-.053-.112-.079-.004-.003-.008-.005-.012-.008-.043-.03-.085-.06-.127-.09.035-.11.091-.205.166-.282.265-.273.737-.267 1.046-.044s.464.612.484.992c.017.325-.053.647-.145.961.023.017.047.033.071.051.437.326.822.676 1.171 1.059l.006.007c-.206-.489-.281-1.126-.227-1.564.061-.5.304-.975.503-1.448.238-.568 1.05-.576 1.28-.004.002.006.005.011.007.017q-.058.057-.111.119c-.051.059-.082.137-.082.221 0 .188.152.34.34.34.014 0 .028-.001.042-.003h-.002l.007-.001c.028.151.046.327.05.507v.047c0 .992-.415 1.888-1.082 2.522l-.001.001c-.023.021-.045.042-.068.063.199.28.395.6.568.933l.021.045c.132.249.268.554.386.868l.018.056z"
        style="fill:var(--color6, #fff)" />
      <path fill="#6c63ff"
        d="m22.021 16.215-.143 9.818-11.548-.331 1.844-4.071c-.013-.131.809-1.048.805-1.183-.014-.398.283-.767.331-1.183.098-.859-.465-4.104-.205-4.774.123-.328.265-.61.434-.874l-.011.018c.148-.223.299-.374.444-.428l.427-.995.379-.568 3.3-.977 1.308 1.277.51.089c.076.013.15.029.221.047.359.084.672.245.934.464l-.004-.003c.89.756.994 2.178.974 3.676z"
        style="fill:var(--color4, #6c63ff)" />
      <path fill="#ccc"
        d="M28.653 25.96q-.489.613-1.035 1.175l-22.927.025q-.157-.16-.309-.326-.379-.411-.729-.848l23.267-.024z"
        style="fill:var(--color11, #ccc)" />
      <path fill="#2f2e41"
        d="M12.675 11.218h-.003c-.014.001-.031.002-.048.002-.269 0-.49-.205-.515-.467v-.002l-.269-2.873c-.011-.109-.017-.236-.017-.364 0-.416.066-.816.187-1.191l-.008.027c.317-.976.978-1.766 1.837-2.243l.02-.01c.428-.237.93-.399 1.463-.451l.016-.001c2.122-.202 2.897.24 4.208 3.476s.27 2.878.27 2.878c.001.015.002.032.002.049 0 .056-.009.11-.025.16l.001-.004c-.043.131-.132.237-.247.301l-.003.001c-.057.032-.124.053-.196.06h-.002c-2.508.638-5.039 1.309-6.672.651z"
        style="fill:var(--color2, #2f2e41)" />
      <path fill="#9e616a"
        d="M17.344 6.368c.305.447.488.998.488 1.593 0 1.571-1.274 2.845-2.845 2.845-.19 0-.375-.019-.554-.054l.018.003c-.758-.146-1.394-.581-1.804-1.182l-.006-.01c-.305-.446-.487-.997-.487-1.591 0-1.571 1.274-2.845 2.845-2.845.188 0 .372.018.551.053l-.018-.003c.759.146 1.396.579 1.806 1.18l.006.01z"
        style="fill:var(--color12, #9e616a)" />
      <path fill="#2f2e41"
        d="M10.951 8.197c-.009-.086-.014-.186-.014-.287 0-.329.052-.645.148-.942l-.006.022c.029-.954.305-1.818 1.469-1.781.336-.186.73-.313 1.149-.356l.013-.001.575-.057q.01-.001.019-.002c.085-.008.183-.013.282-.013 1.583 0 2.884 1.207 3.032 2.751l.001.012.005.058-1.216.119-.523-1.12.026 1.169-.628.062-.264-.565.013.589c-.933.821-2.347.864-4.075.4z"
        style="fill:var(--color2, #2f2e41)" />
      <path fill="#2f2e41"
        d="M14.841 10.923c-.002.017-.003.036-.003.055 0 .08.019.156.052.224l-.001-.003c.022.046.049.086.08.122v-.001c.027.031.058.058.091.081l.002.001c.082.058.185.093.295.093.018 0 .035-.001.053-.003h-.002q.011-.001.023-.003t.023-.004.023-.005.023-.006l.424-.119.476-1.326.109 1.164 1.93-.537-.463-4.939-3.29.324.09.087c.292.284.507.645.613 1.05l.004.016c.071.27.111.581.111.901 0 .126-.006.25-.018.372l.001-.015c-.043.467-.126.895-.248 1.306l.012-.047c-.124.434-.25.79-.396 1.136l.024-.065c-.018.041-.03.088-.036.138v.002z"
        style="fill:var(--color2, #2f2e41)" />
      <path fill="#3f3d56"
        d="M15.28 26.495c-.059 0-.116-.014-.166-.038l.002.001-9.113.233c-.13-.063-.219-.194-.219-.346 0-.172.114-.318.27-.366l.003-.001 5.962-1.778c.033-.01.07-.016.109-.016.029 0 .057.003.083.009h-.003l9.223 1.124c.174.038.302.191.302.374 0 .167-.107.308-.255.361l-.003.001-6.071.421c-.037.013-.08.021-.125.021z"
        style="fill:var(--color7, #3f3d56)" />
      <path fill="#2f2e41"
        d="M15.615 25.861c-.043 0-.084-.011-.119-.031l.001.001-7.401.346c-.074-.042-.123-.12-.123-.209 0-.112.077-.207.182-.233h.002l2.679-.65c.017-.004.037-.007.057-.007.025 0 .049.004.072.011h-.002l6.881-.008c.099.031.17.122.17.229s-.07.197-.166.228h-.002l-2.159.313c-.021.007-.046.011-.072.011z"
        style="fill:var(--color2, #2f2e41)" />
      <path fill="#a0616a"
        d="M14.836 25.466c.16.104.355.166.565.166.431 0 .8-.261.959-.634l.003-.007 7.834.615-.379-1.941-8.08-.077c-.101-.036-.218-.057-.34-.057-.579 0-1.048.469-1.048 1.048 0 .37.192.696.482.882l.004.003z"
        style="fill:var(--color10, #a0616a)" />
      <path fill="#6c63ff"
        d="M19.463 12.826s1.183-.947 2.604.757c.958 1.149 2.805 8.097 2.958 10.976.001.021.002.046.002.07 0 .732-.593 1.325-1.325 1.325h-.032.002l-4.176-.073-.467-2.625 3.297.039z"
        style="fill:var(--color4, #6c63ff)" />
      <path fill="#3f3d56"
        d="M14.773 26.496c-.151 0-.294-.031-.424-.087l.007.003-8.447.193c-.391-.166-.66-.547-.66-.991 0-.061.005-.121.015-.179l-.001.006-.314-7.418c.083-.516.526-.905 1.059-.905.026 0 .052.001.078.003h-.003l7.842.325c.563.038 1.006.504 1.006 1.074 0 .064-.006.128-.017.189l.001-.006.919 6.9c-.091.511-.531.893-1.06.895z"
        style="fill:var(--color7, #3f3d56)" />
      <path fill="#e6e6e6"
        d="M8.359 4.41 4.834 4.4c-.197 0-.356.159-.357.355l-.013 4.668v.001c0 .196.159.356.355.356l3.526.01h.001c.197 0 .356-.159.356-.355l.001-.276.012-4.391v-.001c0-.197-.159-.356-.355-.357z"
        style="fill:var(--color9, #e6e6e6)" />
      <path fill="#fff"
        d="m8.111 4.689-3.03-.009c-.184 0-.333.149-.334.333l-.009 3.001v.002c0 .82.663 1.485 1.482 1.488l1.877.005h.001c.184 0 .333-.149.334-.333l.001-.302.01-3.852v-.001c0-.184-.149-.333-.333-.334z"
        style="fill:var(--color6, #fff)" />
      <path fill="#6c63ff"
        d="M7.77 6.74H5.408c-.078 0-.142.063-.142.142s.063.142.142.142H7.77c.078 0 .142-.063.142-.142s-.063-.142-.142-.142zm-1.843-.777h-.519c-.078 0-.142.063-.142.142s.063.142.142.142h.519c.078 0 .142-.063.142-.142s-.063-.142-.142-.142zM7.77 7.986H5.408c-.078 0-.142.063-.142.142s.063.142.142.142H7.77c.078 0 .142-.063.142-.142s-.063-.142-.142-.142zm0-.623H5.408c-.078 0-.142.063-.142.142s.063.142.142.142H7.77c.078 0 .142-.063.142-.142s-.063-.142-.142-.142zm-.459-.899c-.463 0-.839-.375-.839-.839s.375-.839.839-.839c.463 0 .839.375.839.839-.001.463-.376.838-.839.839zm0-1.619c-.431 0-.78.349-.78.78s.349.78.78.78c.431 0 .78-.349.78-.78-.001-.431-.35-.78-.78-.78z"
        style="fill:var(--color4, #6c63ff)" />
      <path fill="#6c63ff"
        d="M7.663 5.95c-.063-.316-.186-.596-.358-.838l.004.007c-.008-.013-.022-.021-.038-.021s-.03.008-.038.021c-.146.25-.247.544-.286.857l-.001.011c-.007.056.081.055.087 0 .014-.112.034-.212.061-.309l-.004.015c.004-.001.007-.002.01-.003.083-.043.182-.068.286-.068.032 0 .063.002.094.007h-.003.003c.038.097.072.212.096.331l.002.013c.011.055.095.032.084-.023zm-.54-.364c.045-.14.097-.259.158-.372l-.006.012c.059.089.116.192.163.3l.005.013c-.017-.001-.036-.002-.055-.002-.096 0-.187.018-.271.051l.005-.002z"
        style="fill:var(--color4, #6c63ff)" />
    </symbol>
    <symbol id="icon-together" viewBox="0 0 34 32">
      <path fill="#2f2e43"
        d="M0 30.191c0 .041.033.075.075.075h33.657c.041 0 .075-.033.075-.075s-.033-.075-.075-.075H.075c-.042 0-.075.033-.075.075zM10.105 1.339l-.265.662s-.244.927.042 1.297c.285.369.349 3.199.042 3.408s3.889-1.938 3.889-1.938S12.175.969 12.147.956 11.046.608 11.046.608l-.941.732h-.001z"
        style="fill:var(--color13, #2f2e43)" />
      <path fill="#f3a3a6"
        d="m12.837 4.612-1.406.462V3.051h1.275l.131 1.561zM8.54 16.1c-.076.463-.385.796-.69.743s-.491-.473-.414-.937c.028-.185.101-.362.214-.512l.348-1.96.948.199-.445 1.911c.058.181.072.372.038.556zm2.452 11.167h1.317v1.868h-1.317v-1.868z"
        style="fill:var(--color14, #f3a3a6)" />
      <path fill="#2f2e43"
        d="M9.71 30.266c-.138 0-.262-.003-.355-.012-.35-.032-.684-.291-.851-.441-.075-.068-.099-.176-.06-.269.028-.067.084-.117.154-.136l.924-.264 1.497-1.01.017.03c.006.011.153.276.202.455.019.068.014.125-.014.169-.02.03-.047.048-.069.058.027.028.112.086.373.128.382.06.462-.335.465-.352l.002-.013.011-.008c.182-.117.294-.17.332-.159.024.007.064.02.173 1.097.011.034.087.282.035.519-.056.258-1.183.169-1.409.149-.006.001-.85.061-1.428.061z"
        style="fill:var(--color13, #2f2e43)" />
      <path fill="#f3a3a6" d="m14.941 26.497 1.117-.697.989 1.585-1.117.697-.989-1.585z"
        style="fill:var(--color14, #f3a3a6)" />
      <path fill="#2f2e43"
        d="M14.574 30.01c-.155 0-.297-.019-.398-.036-.099-.018-.177-.097-.194-.196-.011-.072.009-.144.058-.197l.645-.713.736-1.649.03.016c.011.006.276.153.412.279.052.048.078.099.077.151 0 .036-.014.065-.028.086.038.01.14.014.384-.089.356-.15.215-.529.209-.545l-.005-.013.006-.012c.092-.196.158-.3.197-.311.025-.007.065-.018.727.839.027.023.223.193.304.421.089.248-.914.77-1.116.872-.006.005-1.056.768-1.487.985-.171.086-.373.113-.558.113zm-1.296-18.365H9.591l-.335 3.429 1.464 12.671h1.882l-.753-7.319 3.053 6.607 1.673-1.171-2.384-6.168s.851-5.374.182-6.712-1.096-1.338-1.096-1.338z"
        style="fill:var(--color13, #2f2e43)" />
      <path fill="#6c63ff" d="M15.112 11.854H8.714l2.3-7.569h2.551l1.547 7.569z"
        style="fill:var(--color4, #6c63ff)" />
      <path fill="#6c63ff"
        d="M11.416 4.285s-1.589-.042-1.756.377c-.167.418-2.133 10.371-2.133 10.371h1.297l2.593-10.748z"
        style="fill:var(--color4, #6c63ff)" />
      <path fill="#f3a3a6"
        d="M13.007 2.21c0 .774-.627 1.401-1.401 1.401s-1.401-.627-1.401-1.401.627-1.401 1.401-1.401 1.401.627 1.401 1.401z"
        style="fill:var(--color14, #f3a3a6)" />
      <path fill="#2f2e43"
        d="M11.877.033s1.686-.432 2.203 1.812c0 0 .014.585.307.822s.195 1.464.195 1.464.558.92.084 1.338c0 0-.209.85.097 1.338s1.464 3.172-.46 3.335c0 0-.976-.589-.516-2.345s-.056-2.726-.056-2.726-1.478-.536-1.394-1.679-.948-2.272-1.017-2.258-.795-.404-1.115.878l-.343-.058S9.718-.204 11.879.033z"
        style="fill:var(--color13, #2f2e43)" />
      <path fill="#f3a3a6"
        d="M16.204 15.876c.094.46-.078.881-.382.939s-.627-.268-.72-.728c-.04-.184-.033-.373.018-.555l-.37-1.956.957-.152.263 1.944c.119.148.199.322.234.507z"
        style="fill:var(--color14, #f3a3a6)" />
      <path fill="#6c63ff"
        d="M12.45 4.294s1.4-.177 1.567.241 2.133 10.371 2.133 10.371h-1.297L12.45 4.294z"
        style="fill:var(--color4, #6c63ff)" />
      <path fill="#f3a3a6"
        d="M16.259 14.712c-.34.324-.44.768-.223.989s.667.138 1.007-.187c.138-.128.241-.287.302-.466l1.421-1.395-.699-.67-1.326 1.446c-.182.054-.347.151-.481.282h-.001z"
        style="fill:var(--color14, #f3a3a6)" />
      <path fill="#6c63ff"
        d="m16.813 14.059 2.623-3.362 1.38-3.612c.151-.394.468-.692.872-.816s.834-.057 1.18.186c.565.395.746 1.151.42 1.759l-2.13 3.976-3.64 2.755-.704-.885v-.001z"
        style="fill:var(--color4, #6c63ff)" />
      <path fill="#f3a3a6" d="m22.96 6.695-1.636.538V4.879h1.484l.152 1.817z"
        style="fill:var(--color14, #f3a3a6)" />
      <path fill="#f3a3a6"
        d="M23.156 3.9c0 .9-.73 1.63-1.63 1.63s-1.63-.73-1.63-1.63c0-.9.73-1.63 1.63-1.63s1.63.73 1.63 1.63z"
        style="fill:var(--color14, #f3a3a6)" />
      <path fill="#2f2e43"
        d="m21.941 4.028-.224.273-.406-.711s-.519.027-.519-.358-.476-.396-.476-.396-.674-1.176.722-.866c0 0 .968-.663 1.449-.096 0 0 1.476.743 1.053 2.037l-.702 1.334-.159-.302s.096-1.268-.738-.914z"
        style="fill:var(--color13, #2f2e43)" />
      <path fill="#f3a3a6" d="M22.092 29.001h1.317v1.868h-1.317v-1.868z"
        style="fill:var(--color14, #f3a3a6)" />
      <path fill="#2f2e43"
        d="M20.809 32c-.138 0-.262-.003-.355-.012-.35-.032-.683-.291-.851-.441-.075-.068-.099-.176-.06-.269.028-.067.084-.117.154-.136l.924-.264 1.497-1.01.017.03c.006.011.153.276.202.455.019.068.014.125-.014.169-.02.03-.047.048-.069.058.027.028.112.086.373.128.382.06.462-.335.465-.352l.003-.013.011-.008c.182-.117.294-.17.332-.159.024.007.064.02.173 1.097.011.034.087.282.035.519-.056.258-1.183.169-1.409.149-.006.001-.85.061-1.428.061z"
        style="fill:var(--color13, #2f2e43)" />
      <path fill="#f3a3a6" d="m25.183 27.04 1.015-.839 1.191 1.439-1.015.839-1.191-1.439z"
        style="fill:var(--color14, #f3a3a6)" />
      <path fill="#2f2e43"
        d="M26.107 30.166c-.107.088-.204.164-.28.217-.29.198-.712.212-.937.202-.101-.004-.189-.072-.218-.169-.021-.07-.009-.144.031-.204l.544-.793.509-1.732.032.013c.012.004.294.115.446.221.058.04.09.087.096.139.004.036-.006.067-.016.089.039.004.141-.005.369-.14.333-.196.143-.553.134-.568l-.006-.012.004-.013c.065-.206.118-.318.155-.334.023-.01.062-.026.832.735.03.019.247.162.358.377.121.235-.804.885-.99 1.012-.004.004-.616.589-1.061.957zm-6.192-15.571h4.517l-1.004 14.929h-1.505l-2.007-14.929z"
        style="fill:var(--color13, #2f2e43)" />
      <path fill="#2f2e43"
        d="m20.834 15.417-.92-.822.46 8.211 5.144 4.893 1.283-1.06-2.997-3.889-2.969-7.332z"
        style="fill:var(--color13, #2f2e43)" />
      <path fill="#6c63ff"
        d="m20.834 5.813 2.23-.362.693 1.211c.88 1.539 1.239 3.323 1.024 5.083l-.35 2.85h-4.517l.92-8.782z"
        style="fill:var(--color4, #6c63ff)" />
      <path fill="#f3a3a6"
        d="M16.278 15.301c-.375.284-.525.712-.336.957s.647.214 1.022-.069c.152-.111.273-.258.353-.428l1.572-1.221-.617-.747-1.485 1.283c-.187.033-.362.11-.511.225h.001z"
        style="fill:var(--color14, #f3a3a6)" />
      <path fill="#6c63ff"
        d="m16.903 14.716 2.993-3.036 1.788-3.429c.195-.374.545-.633.961-.71s.834.04 1.151.32c.516.458.608 1.23.214 1.796l-2.575 3.703-3.934 2.316-.597-.961h-.001z"
        style="fill:var(--color4, #6c63ff)" />
    </symbol>
    <symbol id="icon-love" viewBox="0 0 19 32">
      <path fill="#484565"
        d="M2.63 31.928c0 .04.032.072.072.072h15.764c.04 0 .072-.032.072-.072s-.032-.072-.072-.072H2.702c-.04 0-.072.032-.072.072z"
        style="fill:var(--color15, #484565)" />
      <path fill="#2f2e41"
        d="M10.92.02S9.586-.303 8.778 1.65c-.673 1.629-1.15 2.498-.604 3.089.195.211.474.325.762.335l3.076.101s1.129-2.961.443-4.032C11.769.072 10.921.019 10.921.019z"
        style="fill:var(--color2, #2f2e41)" />
      <path fill="#f6a6a9"
        d="m11.557 4.929-1.479.487v-2.13h1.342l.137 1.643zm-1.135 25.808H9.036l-.803-7.405h2.142l.047 7.405z"
        style="fill:var(--color16, #f6a6a9)" />
      <path fill="#2f2e41"
        d="M7.686 31.928c-.146 0-.275-.004-.373-.013-.368-.034-.719-.305-.896-.464-.079-.071-.105-.185-.063-.283.03-.071.089-.123.162-.144l.973-.278 1.575-1.063.018.032c.007.012.161.291.213.479.02.072.015.132-.015.177-.021.032-.049.051-.073.061.029.03.118.09.393.134.402.064.486-.353.49-.37l.002-.014.012-.008c.191-.123.309-.179.35-.168.026.007.068.02.181 1.154.012.035.091.297.037.546-.059.272-1.245.178-1.482.157-.007.001-.895.064-1.503.064v.001h.001z"
        style="fill:var(--color2, #2f2e41)" />
      <path fill="#f6a6a9" d="M13.552 30.737h-1.386l-.804-7.405h2.142l.047 7.405z"
        style="fill:var(--color16, #f6a6a9)" />
      <path fill="#2f2e41"
        d="M10.817 31.928c-.146 0-.275-.004-.373-.013-.368-.034-.719-.305-.896-.464-.079-.071-.105-.185-.063-.283.03-.071.089-.123.162-.144l.973-.278 1.575-1.063.018.032c.007.012.161.291.213.479.02.072.015.132-.015.177-.021.032-.049.051-.073.061.029.03.118.09.393.134.402.064.486-.353.49-.37l.002-.014.012-.008c.191-.123.309-.179.35-.168.026.007.068.02.181 1.154.012.035.091.297.037.546-.059.272-1.245.178-1.482.157-.007.001-.895.064-1.503.064v.001h.001z"
        style="fill:var(--color2, #2f2e41)" />
      <path fill="#dddedf" d="M13.951 12.55H7.217l2.42-7.966h2.685l1.629 7.966z"
        style="fill:var(--color17, #dddedf)" />
      <path fill="#f6a6a9"
        d="M7.034 17.02c-.08.488-.406.838-.727.781s-.516-.498-.436-.985c.029-.195.107-.38.225-.539l.367-2.063.998.209-.468 2.011c.061.19.076.391.041.586h-.001z"
        style="fill:var(--color16, #f6a6a9)" />
      <path fill="#dddedf"
        d="M10.062 4.586s-1.672-.044-1.848.396c-.176.44-2.244 10.915-2.244 10.915h1.364l2.729-11.31z"
        style="fill:var(--color17, #dddedf)" />
      <path fill="#f6a6a9"
        d="M11.891 2.315c0 .814-.66 1.474-1.474 1.474s-1.474-.66-1.474-1.474.66-1.474 1.474-1.474 1.474.66 1.474 1.474z"
        style="fill:var(--color16, #f6a6a9)" />
      <path fill="#2f2e41"
        d="M10.648.507S8.755 3.323 9.074 5.079l-1.101-.69S8.748.833 9.904.558l.745-.051zm1.904 12.043H8.133l-2.418 9.923c-.044.419.221.81.629.919 1.327.355 4.509.859 9.327-.543.463-.135.727-.624.581-1.084l-3.701-9.215z"
        style="fill:var(--color2, #2f2e41)" />
      <path fill="#dddedf"
        d="m10.6 5.33 1.224-.628c.56-.207 1.184-.138 1.685.188 1.523.99 4.524 3.174 3.234 4.253-1.7 1.423-3.998-1.101-3.998-1.101L10.6 5.329z"
        style="fill:var(--color17, #dddedf)" />
      <path fill="#6c63ff"
        d="m6.408 6.85-.006.006c-.05-.057-.102-.113-.156-.167-1.429-1.429-3.746-1.429-5.174 0s-1.429 3.746 0 5.174c.054.054.11.106.167.156l-.006.006 5.174 5.174 5.174-5.174c1.429-1.429 1.429-3.746 0-5.174s-3.746-1.429-5.174 0z"
        style="fill:var(--color4, #6c63ff)" />
      <path fill="#f6a6a9"
        d="M10.573 6.403c-.426-.251-.635-.681-.466-.96s.65-.301 1.077-.051c.172.098.316.237.421.405l1.791 1.088-.555.855-1.707-1.163c-.2-.012-.392-.071-.561-.174h.001v.001z"
        style="fill:var(--color16, #f6a6a9)" />
      <path fill="#dddedf" d="m11.79 7.389.509-1.216 2.488.823-1.113 1.852-1.884-1.459z"
        style="fill:var(--color17, #dddedf)" />
    </symbol>
    <symbol id="icon-arrow-down" viewBox="0 0 24 24">
      <path d="m12 16l-6-6h12z" />
    </symbol>
    <symbol id="icon-down" viewBox="0 0 16 16">
      <path fill-rule="evenodd"
        d="m7.976 10.072l4.357-4.357l.62.618L8.284 11h-.618L3 6.333l.619-.618z" clip-rule="evenodd" />
    </symbol>
    <symbol id="icon-up" viewBox="0 0 16 16">
      <path fill-rule="evenodd"
        d="m8.024 5.928l-4.357 4.357l-.62-.618L7.716 5h.618L13 9.667l-.619.618z" clip-rule="evenodd" />
    </symbol>
    <symbol id="icon-quotes-right" viewBox="0 0 24 24">
      <path 
        d="M19.417 6.679C20.447 7.773 21 9 21 10.989c0 3.5-2.456 6.637-6.03 8.188l-.893-1.378c3.335-1.804 3.987-4.145 4.248-5.621c-.537.278-1.24.375-1.93.311c-1.804-.167-3.226-1.648-3.226-3.489a3.5 3.5 0 0 1 3.5-3.5c1.073 0 2.1.49 2.748 1.179m-10 0C10.447 7.773 11 9 11 10.989c0 3.5-2.456 6.637-6.03 8.188l-.893-1.378c3.335-1.804 3.987-4.145 4.247-5.621c-.537.278-1.24.375-1.929.311C4.591 12.323 3.17 10.842 3.17 9a3.5 3.5 0 0 1 3.5-3.5c1.073 0 2.1.49 2.748 1.179" />
    </symbol>
    <symbol id="icon-quotes-left" viewBox="0 0 24 24">
      <path 
        d="M4.583 17.321C3.553 16.227 3 15 3 13.011c0-3.5 2.457-6.637 6.03-8.188l.893 1.378c-3.335 1.804-3.987 4.145-4.247 5.621c.537-.278 1.24-.375 1.929-.311c1.804.167 3.226 1.648 3.226 3.489a3.5 3.5 0 0 1-3.5 3.5a3.87 3.87 0 0 1-2.748-1.179m10 0C13.553 16.227 13 15 13 13.011c0-3.5 2.457-6.637 6.03-8.188l.893 1.378c-3.335 1.804-3.987 4.145-4.247 5.621c.537-.278 1.24-.375 1.929-.311c1.804.167 3.226 1.648 3.226 3.489a3.5 3.5 0 0 1-3.5 3.5a3.87 3.87 0 0 1-2.748-1.179" />
    </symbol>
    <symbol id="icon-tik-tok" viewBox="0 0 1024 1024">
      <path  fill-rule="evenodd" d="M530.014 112.667c43.666-.667 86.997-.334 130.328-.667c2.667 51 21 102.999 58.33 138.998c37.332 37 89.997 54 141.328 59.666v134.332c-47.998-1.667-96.33-11.667-139.994-32.333c-19-8.667-36.665-19.667-53.998-31c-.333 97.332.334 194.665-.666 291.663c-2.667 46.666-18 93-44.998 131.332c-43.665 64-119.328 105.665-196.992 106.999c-47.664 2.666-95.329-10.334-135.994-34.333c-67.33-39.666-114.662-112.332-121.661-190.331c-.667-16.667-1-33.333-.334-49.666c6-63.333 37.332-123.999 85.997-165.332c55.33-47.999 132.66-70.999 204.99-57.332c.667 49.333-1.332 98.665-1.332 147.998c-33-10.667-71.664-7.667-100.663 12.333c-20.999 13.667-36.998 34.666-45.331 58.333c-7 17-5 35.666-4.667 53.666c8 54.666 60.664 100.665 116.662 95.665c37.332-.333 72.997-22 92.33-53.666c6.332-11 13.332-22.333 13.665-35.333c3.334-59.666 2-118.998 2.334-178.664c.333-134.332-.334-268.33.666-402.328" />
    </symbol> 
    <symbol id="icon-arrow-left" viewBox="0 0 24 24">
	    <path  fill-rule="evenodd" d="M20.536 3.464C19.07 2 16.714 2 12 2S4.929 2 3.464 3.464C2 4.93 2 7.286 2 12s0 7.071 1.464 8.535C4.93 22 7.286 22 12 22s7.071 0 8.535-1.465C22 19.072 22 16.714 22 12s0-7.071-1.465-8.536M14.03 8.47a.75.75 0 0 1 0 1.06L11.56 12l2.47 2.47a.75.75 0 1 1-1.06 1.06l-3-3a.75.75 0 0 1 0-1.06l3-3a.75.75 0 0 1 1.06 0" clip-rule="evenodd" />
    </symbol>
    <symbol id="icon-arrow-right" viewBox="0 0 24 24">
	     <path  fill-rule="evenodd" d="M3.464 20.536C4.93 22 7.286 22 12 22s7.071 0 8.535-1.465C22 19.072 22 16.714 22 12s0-7.071-1.465-8.536C19.072 2 16.714 2 12 2S4.929 2 3.464 3.464C2 4.93 2 7.286 2 12s0 7.071 1.464 8.535M9.97 15.53a.75.75 0 0 1 0-1.06L12.44 12L9.97 9.53a.75.75 0 0 1 1.06-1.06l3 3a.75.75 0 0 1 0 1.06l-3 3a.75.75 0 0 1-1.06 0" clip-rule="evenodd" />
    </symbol>

  </defs>
</svg>
