<svg xmlns="http://www.w3.org/2000/svg" width="52" height="25"><g fill="none"><ellipse cx="11.97" cy="12" fill="#ED1C2E" rx="11.97" ry="12"/><path fill="#FCB131" d="M28.098 0c-3.15 0-5.922 1.137-8.064 3.158-.378.379-.882.758-1.26 1.263h2.394c.378.379.63.884.882 1.263h-4.284a5.905 5.905 0 0 0-.63 1.263h5.67c.252.379.378.884.504 1.263h-6.678l-.378 1.263h7.308c.126.758.252 1.642.252 2.526a11.93 11.93 0 0 1-.63 3.789h-6.678c.126.379.252.884.504 1.263h5.67l-.63 1.263h-4.284c.252.505.63.884.882 1.263h2.394a5.987 5.987 0 0 1-1.26 1.263c2.142 1.895 4.914 3.158 8.064 3.158 6.552 0 11.97-5.432 11.97-12 .252-6.568-5.166-12-11.718-12zM38.43 18.695c0-.253.126-.379.378-.379s.378.126.378.379-.126.379-.378.379-.378-.126-.378-.379zm.378.253c.126 0 .252-.126.252-.253 0-.126-.126-.253-.252-.253s-.252.126-.252.253c0 .126.126.253.252.253zm0-.126-.126-.379h.252v.378h-.126v-.126.126zm0-.126z"/><path fill="#003473" d="M9.198 13.263h-.252c-.756 0-1.134.253-1.134.758 0 .253.126.505.504.505.504 0 .882-.505.882-1.263zm.882 2.274H8.946v-.505c-.378.379-.756.632-1.386.632-.756 0-1.134-.505-1.134-1.389 0-1.263.882-1.895 2.268-1.895h.504v-.379c0-.379-.252-.505-.882-.505s-1.134.126-1.386.253c0-.126.126-1.137.126-1.137.63-.253 1.134-.253 1.512-.253 1.134 0 1.764.505 1.764 1.389 0 .253 0 .505-.126 1.011.252.884 0 2.4-.126 2.779zm-4.158 0h-1.26l.756-4.674-1.638 4.674h-.882l-.126-4.674-.756 4.674H.756l1.008-6.063h1.89l.126 3.411 1.134-3.411H6.93zm23.688-2.274h-.252c-.756 0-1.134.253-1.134.758 0 .253.126.505.504.505.504 0 .882-.505.882-1.263zm1.008 2.274h-1.134v-.505c-.378.379-.756.632-1.386.632-.756 0-1.134-.505-1.134-1.389 0-1.263.882-1.895 2.268-1.895h.504v-.379c0-.379-.252-.505-.882-.505s-1.134.126-1.386.253c0-.126.126-1.137.126-1.137.63-.253 1.134-.253 1.512-.253 1.134 0 1.764.505 1.764 1.389 0 .253 0 .505-.126 1.011.126.884-.126 2.4-.126 2.779zm-14.742-.127c-.378.126-.63.126-.882.126-.63 0-1.008-.379-1.008-1.137 0-.253.126-.758.126-1.263.126-.505.504-3.411.504-3.411h1.26l-.126.758h.756l-.126 1.263h-.756c-.126.884-.378 2.147-.378 2.274 0 .253.126.379.504.379h.378l-.252 1.011zm4.032 0c-.504.126-.882.253-1.386.253-1.386 0-2.142-.758-2.142-2.147 0-1.642 1.008-2.905 2.268-2.905 1.008 0 1.764.758 1.764 1.768 0 .379 0 .758-.126 1.263h-2.52c-.126.758.378 1.011 1.134 1.011.504 0 .882-.126 1.386-.253l-.378 1.011zm-.756-2.905c0-.126.126-.884-.63-.884-.378 0-.756.253-.882.884h1.512zm-8.19-.379c0 .632.252 1.011 1.008 1.389.504.253.63.379.63.505 0 .253-.252.505-.756.505-.378 0-.756 0-1.134-.253l-.126 1.137c.252.126.504.126 1.386.126 1.386 0 2.016-.505 2.016-1.642 0-.632-.252-1.137-.882-1.389-.756-.126-.882-.253-.882-.505 0-.253.252-.379.63-.379.252 0 .63 0 .882.126l.126-1.137c-.378 0-.882-.126-1.134-.126-1.386 0-1.89.758-1.764 1.642zm15.246-1.516c.378 0 .756.126 1.134.379l.252-1.263c-.252-.126-.882-.505-1.386-.505-.882 0-1.638.379-2.142 1.137-.756-.253-1.008.253-1.386.758l-.378.126v-.505h-1.134c-.126 1.516-.504 3.032-.63 4.674v.379h1.26c.252-1.389.378-2.274.378-2.905l.504-.253c.126-.253.252-.379.756-.379l-.126 1.011c0 1.642.882 2.653 2.268 2.653.378 0 .63 0 1.134-.126l.252-1.389c-.378.253-.756.253-1.134.253-.756 0-1.26-.505-1.26-1.516 0-1.642.63-2.526 1.638-2.526zM37.17 9.474l-.252 1.768c-.378-.505-.756-.758-1.26-.758-.63 0-1.26.505-1.638 1.263-.504-.253-1.134-.379-1.134-.379v-.758h-1.134c-.126 1.516-.504 3.032-.63 4.674v.379h1.26c.126-1.137.252-2.147.378-2.905.504-.379.63-.758 1.134-.758-.252.505-.252 1.011-.252 1.642 0 1.263.63 2.021 1.512 2.021.504 0 .882-.126 1.26-.505v.505h1.26L38.682 9.6H37.17v-.126zM35.532 14.4c-.504 0-.63-.379-.63-1.011 0-1.011.378-1.642 1.008-1.642.504 0 .63.379.63 1.011 0 .884-.378 1.642-1.008 1.642z"/><path fill="#fff" d="M6.3 15.158H5.04l.756-4.674-1.638 4.674h-.882l-.126-4.674-.756 4.674h-1.26l1.008-6.063h1.89v3.789l1.26-3.789h2.016zm3.276-2.147h-.252c-.756 0-1.134.253-1.134.758 0 .253.126.505.504.505.504-.126.882-.632.882-1.263zm.882 2.147H9.324v-.505c-.378.379-.756.632-1.386.632-.756 0-1.134-.505-1.134-1.389 0-1.263.882-1.895 2.268-1.895h.504v-.379c0-.379-.252-.505-.882-.505-.378.126-.882.253-1.134.379 0-.126.126-1.137.126-1.137.63-.126 1.134-.253 1.638-.253 1.134 0 1.764.505 1.764 1.389 0 .253 0 .632-.126 1.011-.252.758-.378 2.274-.504 2.653zm17.514-5.937-.252 1.263c-.504-.253-.756-.379-1.134-.379-1.008 0-1.638.884-1.638 2.274 0 .884.504 1.516 1.26 1.516.378 0 .63-.126 1.134-.253l-.252 1.389c-.504.126-.756.126-1.134.126-1.386 0-2.268-1.011-2.268-2.653 0-2.147 1.26-3.663 2.898-3.663.504.126 1.134.379 1.386.379zm2.016 3.79h-.252c-.756 0-1.134.253-1.134.758 0 .253.126.505.504.505.504-.126.882-.632.882-1.263zm1.008 2.147h-1.134v-.505c-.378.379-.756.632-1.386.632-.756 0-1.134-.505-1.134-1.389 0-1.263.882-1.895 2.268-1.895h.504v-.379c0-.379-.252-.505-.882-.505s-1.134.126-1.386.253c0-.126.126-1.137.126-1.137.882 0 1.26-.126 1.764-.126 1.134 0 1.764.505 1.764 1.389 0 .253 0 .632-.126 1.011-.126.758-.378 2.274-.378 2.653zm-14.742-.126c-.378.126-.63.126-.882.126-.63 0-1.008-.379-1.008-1.137 0-.253.126-.758.126-1.263.126-.505.504-3.411.504-3.411h1.26l-.126.758h.63l-.126 1.263h-.63c-.126.884-.378 2.147-.378 2.274 0 .253.126.379.504.379h.378l-.252 1.011zm4.032 0c-.504.126-.882.253-1.386.253-1.386 0-2.142-.758-2.142-2.147 0-1.768.882-3.032 2.268-3.032 1.008 0 1.764.758 1.764 1.768 0 .379 0 .758-.126 1.263h-2.52c-.126.758.378 1.011 1.134 1.011.504 0 .882-.126 1.386-.253l-.378 1.137zm-.756-2.905c0-.126.126-.884-.63-.884-.378 0-.756.253-.882.884h1.512zm-8.316-.38c0 .632.252 1.011 1.008 1.389.504.253.63.379.63.505 0 .253-.252.505-.756.505-.378 0-.756 0-1.134-.253l-.126 1.137c.252.126.504.253 1.26.253 1.386 0 2.016-.505 2.016-1.642 0-.632-.252-1.137-.882-1.389-.504-.253-.63-.379-.63-.632s.252-.379.63-.379c.252 0 .63 0 .882.126l.126-1.137c-.252-.126-.756-.126-1.008-.126-1.512 0-2.016.758-2.016 1.642zM37.8 15.158h-1.26v-.505c-.378.379-.756.505-1.26.505-.882 0-1.512-.758-1.512-2.021 0-1.642 1.008-3.032 2.142-3.032.504 0 .882.253 1.26.632l.252-1.768h1.26l-.882 6.189zm-1.89-1.137c.63 0 1.008-.632 1.008-1.642 0-.632-.252-1.011-.63-1.011-.63 0-1.008.758-1.008 1.642 0 .632.252 1.011.63 1.011zm-3.78-3.789c-.126 1.516-.504 3.032-.63 4.674v.379h1.26c.504-3.032.63-3.663 1.26-3.537a5.456 5.456 0 0 1 .504-1.389c-.504-.126-.882.253-1.26.758l.126-.758h-1.26v-.126zm-10.71 0c-.126 1.516-.504 3.032-.63 4.674v.379h1.26c.504-3.032.63-3.663 1.26-3.537a5.456 5.456 0 0 1 .504-1.389c-.504-.126-.882.253-1.26.758l.126-.758h-1.26v-.126zm17.01 4.547c0-.253.126-.379.378-.379s.378.126.378.379-.126.379-.378.379-.378-.126-.378-.379zm.378.253c.126 0 .252-.126.252-.253 0-.126-.126-.253-.252-.253s-.252.126-.252.253c0 .126.126.253.252.253zm0-.126-.126-.379h.252v.378h-.126v-.126.126zm0-.126z"/></g></svg>