<svg width="640" height="449" viewBox="0 0 640 449" fill="none" xmlns="http://www.w3.org/2000/svg">
<path d="M248.887 213.64H222.537C223.227 208.48 225.857 199.52 236.177 199.52C242.927 199.52 248.147 203.34 248.887 213.64ZM385.547 199.76C385.077 199.76 371.437 197.99 371.437 219.76C371.437 241.53 385.067 239.76 385.547 239.76C398.547 239.76 399.657 226.22 399.657 219.76C399.657 198 385.997 199.76 385.547 199.76ZM142.327 223.52C141.231 224.379 140.359 225.491 139.786 226.761C139.213 228.03 138.956 229.42 139.037 230.81C139.037 235.59 141.117 236.86 142.327 237.86C147.027 241.56 157.397 239.98 163.257 238.81V221.87C157.937 220.8 146.527 219.91 142.327 223.52ZM639.997 200C639.997 287.58 559.997 354.39 474.637 336.43C456.267 369.43 403.907 407.18 342.437 378.06C301.277 474.11 164.547 470.24 128.627 372.89C8.90666 396.78 -50.1933 234.52 53.3567 173.61C18.6067 94.18 75.9967 0 167.667 0C186.73 0.0118398 205.535 4.41047 222.626 12.8554C239.717 21.3003 254.636 33.565 266.227 48.7C286.927 27.3 315.627 13.89 347.377 13.89C389.717 13.89 426.377 37.41 446.177 72.46C538.997 31.78 639.997 100.69 639.997 200ZM120.447 231.8C120.447 220.04 108.757 216.63 102.577 214.63C97.3067 212.52 89.1667 211.12 89.1667 205.69C89.1667 196.23 106.167 199.03 114.337 203.57C114.337 203.57 115.507 204.28 115.977 203.1C116.217 202.4 118.337 196.52 118.567 195.81C118.656 195.53 118.633 195.226 118.503 194.963C118.372 194.7 118.144 194.498 117.867 194.4C105.537 186.77 77.1667 185.89 77.1667 207.1C77.1667 219.56 88.6567 222.54 95.0467 224.27C99.7667 225.85 108.217 227.27 108.217 232.97C108.217 236.97 104.687 240.03 99.0467 240.03C92.1941 240.018 85.5291 237.791 80.0467 233.68C79.5767 233.45 78.6267 232.97 78.3967 234.39L75.9967 241.86C75.5267 242.8 76.2267 243.04 76.2267 243.27C77.9767 244.67 86.5267 249.86 99.0467 249.86C112.217 249.86 120.447 242.8 120.447 231.75V231.8ZM152.447 189.22C142.317 189.22 133.787 192.39 131.047 194.4C130.937 194.476 130.844 194.573 130.772 194.685C130.701 194.798 130.652 194.923 130.63 195.054C130.608 195.186 130.612 195.32 130.642 195.45C130.672 195.58 130.728 195.702 130.807 195.81L133.397 202.87C133.467 203.115 133.628 203.324 133.848 203.454C134.067 203.584 134.328 203.626 134.577 203.57C135.227 203.57 141.377 199.57 151.507 199.57C155.507 199.57 158.567 200.28 160.687 201.93C164.287 204.73 163.747 210.22 163.747 212.51C158.957 212.21 144.637 209.07 134.337 216.27C131.989 217.88 130.085 220.057 128.802 222.599C127.519 225.14 126.898 227.965 126.997 230.81C126.997 236.71 128.507 241.21 133.587 245.16C145.827 253.32 169.867 247.16 171.687 246.57C173.267 246.25 175.217 245.91 175.217 244.69V210.81C175.257 206.2 175.537 189.17 152.437 189.17L152.447 189.22ZM198.997 168.24C199.007 168.082 198.983 167.924 198.928 167.777C198.872 167.629 198.786 167.494 198.674 167.383C198.562 167.271 198.428 167.184 198.28 167.129C198.132 167.073 197.974 167.05 197.817 167.06H187.997C187.84 167.051 187.683 167.076 187.536 167.132C187.39 167.188 187.257 167.275 187.146 167.387C187.036 167.498 186.95 167.632 186.895 167.779C186.84 167.926 186.817 168.083 186.827 168.24V247.24C186.817 247.397 186.84 247.554 186.895 247.701C186.95 247.848 187.036 247.982 187.146 248.093C187.257 248.205 187.39 248.292 187.536 248.348C187.683 248.404 187.84 248.429 187.997 248.42H197.877C198.034 248.43 198.192 248.407 198.34 248.351C198.488 248.296 198.622 248.209 198.734 248.097C198.846 247.986 198.932 247.851 198.988 247.703C199.043 247.556 199.067 247.398 199.057 247.24L198.997 168.24ZM254.747 197.17C252.647 194.86 247.957 189.64 237.097 189.64C233.587 189.64 222.937 189.87 216.397 198.58C210.047 206.21 209.817 216.69 209.817 219.99C209.817 223.11 209.967 234.25 216.877 241.16C219.517 244.07 225.937 249.39 239.687 249.39C250.507 249.39 256.157 247.04 258.267 245.63C258.737 245.39 258.977 244.92 258.507 243.75L256.157 236.92C256.036 236.661 255.831 236.45 255.574 236.323C255.318 236.195 255.026 236.159 254.747 236.22C252.157 237.16 248.397 239.04 239.457 239.04C222.037 239.04 222.607 224.3 222.517 222.34H259.687C259.958 222.334 260.22 222.239 260.432 222.069C260.643 221.899 260.793 221.664 260.857 221.4C260.567 221.4 262.927 206.7 254.767 197.17H254.747ZM291.437 249.86C304.607 249.86 312.847 242.8 312.847 231.75C312.847 219.99 301.147 216.58 294.967 214.58C290.827 212.92 281.557 211.2 281.557 205.64C281.557 201.88 284.847 199.29 290.027 199.29C295.843 199.406 301.556 200.853 306.727 203.52C306.727 203.52 307.907 204.23 308.377 203.05C308.607 202.35 310.727 196.47 310.957 195.76C311.046 195.48 311.023 195.176 310.893 194.913C310.762 194.65 310.534 194.448 310.257 194.35C302.347 189.45 293.517 189.41 290.027 189.41C278.027 189.41 269.567 196.7 269.567 207.05C269.567 219.51 281.047 222.49 287.437 224.22C293.547 226.22 300.607 227.48 300.607 232.92C300.607 236.92 297.087 239.98 291.437 239.98C284.585 239.966 277.92 237.738 272.437 233.63C272.295 233.508 272.121 233.429 271.936 233.4C271.751 233.372 271.562 233.396 271.39 233.47C271.218 233.544 271.071 233.665 270.964 233.819C270.857 233.972 270.796 234.153 270.787 234.34L268.437 241.86C267.967 242.8 268.667 243.04 268.667 243.27C270.387 244.67 278.997 249.86 291.457 249.86H291.437ZM357.087 192C357.087 191.29 356.847 190.82 355.907 190.82H344.147C344.147 190.68 345.087 181.88 348.617 178.35C352.777 174.2 360.377 176.71 360.617 176.71C361.787 177.18 362.027 176.71 362.257 176.24L365.087 168.47C365.787 167.53 365.087 167.3 364.847 167.06C359.757 165.06 347.497 164.19 340.387 171.3C334.907 176.78 333.387 185.22 332.387 190.82H323.917C323.613 190.845 323.329 190.978 323.114 191.194C322.9 191.411 322.769 191.696 322.747 192L321.327 199.76C321.327 200.46 321.567 200.93 322.507 200.93H330.737C322.227 248.83 321.987 251.14 320.387 256.45C319.307 260.07 317.097 263.35 314.507 264.21C314.417 264.21 310.627 265.89 304.867 263.97C304.867 263.97 303.927 263.5 303.457 264.68C303.217 265.39 300.867 271.5 300.627 272.21C300.387 272.92 300.627 273.62 301.097 273.62C306.207 275.62 314.097 275.39 318.977 273.62C325.257 271.34 328.697 265.73 330.507 260.68C333.257 252.97 333.317 250.89 342.267 200.94H354.497C354.801 200.915 355.087 200.783 355.303 200.566C355.519 200.35 355.652 200.065 355.677 199.76L357.087 192ZM410.477 208C409.917 206.32 405.377 189.89 385.307 189.89C370.057 189.89 362.307 199.89 360.147 208C359.147 211 356.967 222 360.147 231.52C360.237 231.82 364.557 249.64 385.307 249.64C400.257 249.64 408.207 240.03 410.477 231.52C413.687 221.91 411.487 211 410.477 208ZM455.877 191.3C450.877 189.65 439.257 189.4 433.767 196.71V192.24C433.775 192.083 433.751 191.926 433.695 191.78C433.638 191.633 433.552 191.5 433.44 191.389C433.328 191.279 433.195 191.193 433.048 191.138C432.901 191.083 432.743 191.06 432.587 191.07H423.187C423.03 191.06 422.873 191.083 422.726 191.138C422.579 191.193 422.445 191.279 422.333 191.389C422.222 191.5 422.135 191.633 422.079 191.78C422.022 191.926 421.998 192.083 422.007 192.24V247.52C421.998 247.677 422.023 247.835 422.079 247.982C422.135 248.129 422.222 248.262 422.333 248.374C422.444 248.485 422.578 248.572 422.725 248.628C422.872 248.684 423.029 248.709 423.187 248.7H432.827C432.984 248.709 433.141 248.684 433.288 248.628C433.435 248.572 433.569 248.485 433.68 248.374C433.792 248.262 433.878 248.129 433.935 247.982C433.991 247.835 434.015 247.677 434.007 247.52V219.75C434.007 216.84 434.057 208.38 438.467 204.7C443.367 199.8 450.467 201.34 451.877 201.64C452.177 201.635 452.469 201.543 452.719 201.377C452.969 201.21 453.166 200.975 453.287 200.7C454.46 198.095 455.482 195.424 456.347 192.7C456.446 192.447 456.453 192.167 456.367 191.91C456.281 191.652 456.108 191.433 455.877 191.29V191.3ZM502.687 245.4L500.567 238.11C500.097 236.93 499.157 237.4 499.157 237.4C494.927 239.22 489.007 239.29 487.867 239.29C483.227 239.29 470.697 238.16 470.697 219.53C470.697 213.3 472.547 199.77 487.167 199.77C491.072 199.671 494.966 200.229 498.687 201.42C498.687 201.42 499.627 201.89 499.867 200.71C500.807 198.12 501.507 196.24 502.457 193.18C502.687 192.24 501.987 192.01 501.747 192.01C490.157 188.14 479.407 189.48 473.987 192.01C472.397 192.75 457.757 198.5 457.757 219.53C457.757 222.43 457.177 249.64 486.697 249.64C491.997 249.629 497.253 248.67 502.217 246.81C502.432 246.651 502.592 246.429 502.676 246.174C502.76 245.92 502.764 245.646 502.687 245.39V245.4ZM556.557 205.88C555.757 202.88 551.187 189.65 534.207 189.65C518.207 189.65 510.687 199.76 508.567 208.24C507.413 212.051 506.857 216.018 506.917 220C506.917 245.87 525.757 249.4 536.797 249.4C547.617 249.4 553.257 247.05 555.377 245.64C555.847 245.4 556.087 244.93 555.617 243.76L553.257 236.93C553.136 236.671 552.931 236.46 552.674 236.333C552.418 236.205 552.126 236.169 551.847 236.23C549.257 237.17 545.497 239.05 536.557 239.05C519.137 239.05 519.707 224.31 519.627 222.35H556.787C557.059 222.343 557.321 222.248 557.534 222.078C557.747 221.908 557.899 221.674 557.967 221.41C557.727 221.4 558.907 214.34 556.557 205.87V205.88ZM533.267 199.53C522.937 199.53 520.267 208.53 519.627 213.65H545.997C545.117 201.73 538.377 199.52 533.267 199.52V199.53Z" fill="black"/>
</svg>
