<svg xmlns="http://www.w3.org/2000/svg" width="52" height="25">
<defs><linearGradient id="a" x1="-233.561%" x2="372.942%" y1="26.058%" y2="23.566%"><stop offset="0%" stop-color="#191E5F"/>
<stop offset="100%" stop-color="#142787" stop-opacity=".818"/></linearGradient>
<linearGradient id="b" x1="-182.481%" x2="225.539%" y1="27.757%" y2="24.759%">
<stop offset="0%" stop-color="#191E5F"/><stop offset="100%" stop-color="#142787" stop-opacity=".818"/>
</linearGradient><linearGradient id="c" x1="-230.002%" x2="110.954%" y1="26.836%" y2="23.739%"><stop offset="0%" stop-color="#191E5F"/><stop offset="100%" stop-color="#142787" stop-opacity=".818"/></linearGradient><linearGradient id="d" x1="-13.859%" x2="265.571%" y1="26.026%" y2="23.531%"><stop offset="0%" stop-color="#191E5F"/><stop offset="100%" stop-color="#142787" stop-opacity=".818"/></linearGradient><linearGradient id="e" x1="22.862%" x2="428.639%" y1="47.883%" y2="43.303%"><stop offset="0%" stop-color="#191E5F"/><stop offset="100%" stop-color="#142787" stop-opacity=".818"/></linearGradient><linearGradient id="f" x1="-156.382%" x2="3998.32%" y1="335.864%" y2="267.357%"><stop offset="0%" stop-color="#191E5F"/><stop offset="100%" stop-color="#142787" stop-opacity=".818"/></linearGradient></defs><g fill="none"><path fill="url(#a)" d="M21.187 6.142h3.456l-2.162 12.57h-3.454z"/><path fill="url(#b)" d="M35.032 6.548c-.685-.255-1.757-.528-3.097-.528-3.415 0-5.82 1.705-5.84 4.148-.019 1.806 1.717 2.814 3.028 3.415 1.345.616 1.797 1.009 1.791 1.559-.008.843-1.074 1.228-2.067 1.228-1.383 0-2.118-.191-3.253-.66l-.445-.2-.485 2.814c.807.351 2.3.655 3.849.671 3.633 0 5.991-1.685 6.017-4.295.013-1.43-.908-2.518-2.901-3.415-1.208-.581-1.948-.97-1.94-1.558 0-.522.626-1.081 1.979-1.081a6.418 6.418 0 0 1 2.586.482l.31.145.468-2.724"/><path fill="url(#c)" d="M43.893 6.251h-2.67c-.827 0-1.446.224-1.809 1.042l-5.132 11.52h3.629s.593-1.549.727-1.889l4.426.005c.103.44.42 1.884.42 1.884h3.207L43.894 6.251zm-4.261 8.102c.286-.724 1.377-3.514 1.377-3.514l.458-1.2.234 1.084.8 3.63h-2.869z"/><path fill="url(#d)" d="m16.145 6.248-3.383 8.572-.36-1.742c-.63-2.008-2.592-4.184-4.786-5.273l3.094 10.993 3.656-.004 5.44-12.546h-3.66"/><path fill="url(#e)" d="M9.623 6.24H4.051l-.044.262c4.335 1.04 7.204 3.555 8.394 6.576l-1.212-5.776c-.209-.796-.816-1.033-1.566-1.061"/><path fill="url(#f)" d="M7.752 8.283c-.072-.263-.146-.421-.419-.568l1.018.455"/></g></svg>
